<?xml version="1.0" encoding="UTF-8"?><svg id="Camada_2" xmlns="http://www.w3.org/2000/svg" viewBox="0 0 101.71 95.86"><defs><style>.cls-1{fill:#fff;}</style></defs><g id="OBJECTS"><g><path class="cls-1" d="M45.04,37.84c-.85-.68-2-1.12-3.27-1.16-2.81-.09-5.12,1.9-5.12,4.17v55.01h9.83V40.65c0-1.09-.55-2.08-1.44-2.8Z"/><path class="cls-1" d="M64.37,37.84c-.85-.69-2.03-1.13-3.33-1.16-2.78-.06-5.06,1.92-5.06,4.16v55.02h9.83V40.64c0-1.1-.55-2.08-1.44-2.8Z"/><path class="cls-1" d="M0,50.85c0,19.54,11.01,36.5,27.15,45V62.48h-7.18c-1.87,0-3.39-1.53-3.39-3.39,0-.94,.38-1.79,.99-2.4,.62-.61,1.46-.99,2.4-.99h7.18v-7.46h-7.18c-1.87,0-3.39-1.52-3.39-3.38,0-.94,.38-1.79,.99-2.4,.62-.61,1.46-.99,2.4-.99h7.18v-1.9c0-3.98,1.61-7.58,4.22-10.2,2.63-2.63,6.27-4.24,10.29-4.22,3.66,.02,6.98,1.46,9.49,3.8,2.59-2.38,6.04-3.82,9.84-3.8,8,.04,14.32,6.84,14.32,14.83v1.48h6.42c1.88,0,3.39,1.52,3.39,3.39,0,.94-.38,1.78-.99,2.39-.61,.61-1.46,.99-2.4,.99h-6.42v7.46h6.42c1.88,0,3.39,1.52,3.39,3.39,0,.93-.38,1.78-.99,2.4-.61,.61-1.46,.99-2.4,.99h-6.42v32.97c15.74-8.64,26.41-25.37,26.41-44.6C101.71,22.76,78.94,0,50.85,0S0,22.76,0,50.85Z"/></g></g></svg>